<svg viewBox="0 0 640 360" xmlns="http://www.w3.org/2000/svg" font-family="Inter, system-ui, sans-serif">
  <defs>
    <linearGradient id="pf-bg" x1="0" y1="0" x2="1" y2="1">
      <stop offset="0" stop-color="#052e2b" stop-opacity="0.5"/>
      <stop offset="1" stop-color="#0f172a" stop-opacity="0.9"/>
    </linearGradient>
  </defs>
  <rect width="640" height="360" fill="#0f172a"/>
  <rect width="640" height="360" fill="url(#pf-bg)"/>

  <g transform="translate(28,26)">
    <text x="0" y="12" fill="#e2e8f0" font-size="16" font-weight="700">¿Listo para volar? Chequeo pre-vuelo de un vistazo</text>
    <text x="0" y="31" fill="#64748b" font-size="11">Cruza tu próximo OFP con lo que tienes instalado y al día · + radar de escenarios nuevos</text>
  </g>

  <!-- veredicto -->
  <g transform="translate(48,72)">
    <rect width="360" height="256" rx="14" fill="#0b1424" stroke="#1e293b"/>
    <g transform="translate(18,18)">
      <rect width="324" height="44" rx="10" fill="#0c2a1c"/>
      <circle cx="26" cy="22" r="13" fill="#10b981" opacity="0.25"/>
      <path d="M20 22 l5 5 8 -10" fill="none" stroke="#34d399" stroke-width="2.2" stroke-linecap="round" stroke-linejoin="round"/>
      <text x="50" y="20" fill="#a7f3d0" font-size="13" font-weight="800">¡Casi listo! · 1 punto por revisar</text>
      <text x="50" y="36" fill="#6ee7b7" font-size="11" font-family="monospace">LEMD → LEBL · A320</text>
    </g>
    <g transform="translate(18,74)" font-size="11">
      <g transform="translate(0,0)"><circle cx="8" cy="8" r="5" fill="#34d399"/><text x="24" y="12" fill="#cbd5e1">Escenario de salida LEMD activo</text></g>
      <g transform="translate(0,30)"><circle cx="8" cy="8" r="5" fill="#fbbf24"/><text x="24" y="12" fill="#cbd5e1">Llegada LEBL: hay update 1.2 → 1.3</text>
        <rect x="232" y="0" width="60" height="18" rx="6" fill="#1e293b"/><text x="262" y="13" fill="#e2e8f0" font-size="10" text-anchor="middle">Actualizar</text></g>
      <g transform="translate(0,60)"><circle cx="8" cy="8" r="5" fill="#34d399"/><text x="24" y="12" fill="#cbd5e1">AIRAC al día (2607)</text></g>
      <g transform="translate(0,90)"><circle cx="8" cy="8" r="5" fill="#34d399"/><text x="24" y="12" fill="#cbd5e1">MSFS detectado y en ejecución</text></g>
      <g transform="translate(0,120)"><circle cx="8" cy="8" r="5" fill="#38bdf8"/><text x="24" y="12" fill="#cbd5e1">Plan de vuelo LEMD → LEBL</text></g>
    </g>
  </g>

  <!-- radar escenarios nuevos -->
  <g transform="translate(424,72)">
    <rect width="168" height="256" rx="14" fill="#0b1424" stroke="#1e293b"/>
    <text x="16" y="26" fill="#e879f9" font-size="11" font-weight="800">✦ NUEVOS ESCENARIOS</text>
    <g transform="translate(16,40)">
      <rect width="136" height="60" rx="10" fill="#150e26" stroke="#3b0764"/>
      <rect x="10" y="10" width="40" height="28" rx="5" fill="#1e293b"/>
      <text x="58" y="24" fill="#e2e8f0" font-size="10" font-weight="700">LFPG</text>
      <text x="58" y="38" fill="#94a3b8" font-size="9">París CDG · 2 jul</text>
    </g>
    <g transform="translate(16,110)">
      <rect width="136" height="60" rx="10" fill="#150e26" stroke="#3b0764"/>
      <rect x="10" y="10" width="40" height="28" rx="5" fill="#1e293b"/>
      <text x="58" y="24" fill="#e2e8f0" font-size="10" font-weight="700">KSEA</text>
      <text x="58" y="38" fill="#94a3b8" font-size="9">Seattle · 1 jul</text>
    </g>
    <g transform="translate(16,180)">
      <rect width="136" height="60" rx="10" fill="#150e26" stroke="#3b0764"/>
      <rect x="10" y="10" width="40" height="28" rx="5" fill="#1e293b"/>
      <text x="58" y="24" fill="#e2e8f0" font-size="10" font-weight="700">EGLL</text>
      <text x="58" y="38" fill="#94a3b8" font-size="9">Heathrow · 30 jun</text>
    </g>
  </g>
</svg>
